<svg width="70" height="70" viewBox="0 0 70 70" fill="none" xmlns="http://www.w3.org/2000/svg">
<path d="M20.7505 14.5352H49.047C49.4262 14.5352 49.7899 14.6858 50.058 14.9539C50.3261 15.222 50.4767 15.5857 50.4767 15.9649V18.8243C50.4767 19.2034 50.3261 19.5671 50.058 19.8352C49.7899 20.1033 49.4262 20.254 49.047 20.254H20.7505C20.1584 20.2499 19.592 20.0121 19.1744 19.5923C18.7568 19.1726 18.522 18.6049 18.521 18.0128V16.7763C18.522 16.1842 18.7568 15.6165 19.1744 15.1968C19.592 14.777 20.1584 14.5392 20.7505 14.5352V14.5352Z" stroke="#301111" stroke-width="1.24983" stroke-linecap="round" stroke-linejoin="round"/>
<path d="M24.1625 24.5894H45.4032" stroke="#301111" stroke-width="1.24983" stroke-linecap="round" stroke-linejoin="round"/>
<path d="M24.1625 26.5298H45.4032" stroke="#301111" stroke-width="1.24983" stroke-linecap="round" stroke-linejoin="round"/>
<path d="M24.1625 28.4692H45.4032" stroke="#301111" stroke-width="1.24983" stroke-linecap="round" stroke-linejoin="round"/>
<path d="M14 45.9966H19.0619" stroke="#301111" stroke-width="1.24983" stroke-linecap="round" stroke-linejoin="round"/>
<path d="M50.5695 45.9463H55.2797" stroke="#301111" stroke-width="1.24983" stroke-linecap="round" stroke-linejoin="round"/>
<path d="M23.8804 31.5952H30.345" stroke="#301111" stroke-width="1.24983" stroke-linecap="round" stroke-linejoin="round"/>
<path d="M38.9773 31.5952H45.4032" stroke="#301111" stroke-width="1.24983" stroke-linecap="round" stroke-linejoin="round"/>
<path d="M25.9515 45.9966V54.7796H43.5137V45.9966" stroke="#301111" stroke-width="1.24983" stroke-linecap="round" stroke-linejoin="round"/>
<path d="M26.0752 14.5278V20.2466" stroke="#301111" stroke-width="1.24983" stroke-linecap="round" stroke-linejoin="round"/>
<path d="M28.6177 14.5278V20.2466" stroke="#301111" stroke-width="1.24983" stroke-linecap="round" stroke-linejoin="round"/>
<path d="M41.1721 14.5278V20.2466" stroke="#301111" stroke-width="1.24983" stroke-linecap="round" stroke-linejoin="round"/>
<path d="M43.7108 14.5278V20.2466" stroke="#301111" stroke-width="1.24983" stroke-linecap="round" stroke-linejoin="round"/>
<path d="M25.9515 31.5952V38.1641C25.9525 38.4876 26.0815 38.7976 26.3103 39.0264C26.5391 39.2552 26.849 39.3841 27.1726 39.3852H27.5126C27.8361 39.3841 28.1461 39.2552 28.3749 39.0264C28.6037 38.7976 28.7326 38.4876 28.7337 38.1641V31.5952" stroke="#301111" stroke-width="1.24983" stroke-linecap="round" stroke-linejoin="round"/>
<path d="M41.1296 31.5952V38.1062C41.1306 38.4481 41.2669 38.7758 41.5087 39.0176C41.7505 39.2594 42.0782 39.3957 42.4202 39.3968H42.5013C42.6708 39.3968 42.8386 39.3634 42.9952 39.2985C43.1518 39.2337 43.2941 39.1386 43.4139 39.0187C43.5338 38.8989 43.6288 38.7566 43.6937 38.6C43.7585 38.4435 43.7919 38.2756 43.7919 38.1062V31.5952" stroke="#301111" stroke-width="1.24983" stroke-linecap="round" stroke-linejoin="round"/>
<path d="M19.0619 40.2085H15.7736C15.3055 40.2095 14.8567 40.3951 14.5247 40.725C14.1926 41.0549 14.0041 41.5024 14 41.9705V56.4607C14 57.338 14.3485 58.1793 14.9688 58.7996C15.5891 59.4199 16.4304 59.7684 17.3076 59.7684H19.0619V40.2085Z" stroke="#301111" stroke-width="1.24983" stroke-linecap="round" stroke-linejoin="round"/>
<path d="M43.8614 41.2939H25.4453C24.7731 41.2939 24.2281 41.8389 24.2281 42.5111V44.5823C24.2281 45.2545 24.7731 45.7994 25.4453 45.7994H43.8614C44.5337 45.7994 45.0786 45.2545 45.0786 44.5823V42.5111C45.0786 41.8389 44.5337 41.2939 43.8614 41.2939Z" stroke="#301111" stroke-width="1.24983" stroke-linecap="round" stroke-linejoin="round"/>
<path d="M30.2213 14.5356V12.8973C30.2213 12.3941 30.4212 11.9115 30.777 11.5557C31.1328 11.1999 31.6154 11 32.1186 11H37.4973C37.9992 11.002 38.4798 11.2028 38.8339 11.5584C39.188 11.914 39.3869 12.3954 39.3869 12.8973V14.5356" stroke="#301111" stroke-width="1.24983" stroke-linecap="round" stroke-linejoin="round"/>
<path d="M19.0619 40.2084V37.4803C19.0629 36.8958 19.2958 36.3356 19.7095 35.9227C20.1232 35.5098 20.6838 35.2778 21.2683 35.2778H25.9515" stroke="#301111" stroke-width="1.24983" stroke-linecap="round" stroke-linejoin="round"/>
<path d="M28.7337 35.2778H41.1296" stroke="#301111" stroke-width="1.24983" stroke-linecap="round" stroke-linejoin="round"/>
<path d="M50.3724 40.2084V37.4147C50.3724 37.1337 50.317 36.8555 50.2094 36.596C50.1017 36.3365 49.944 36.1008 49.7452 35.9023C49.5463 35.7039 49.3103 35.5465 49.0506 35.4394C48.7909 35.3322 48.5126 35.2773 48.2317 35.2778H43.7919" stroke="#301111" stroke-width="1.24983" stroke-linecap="round" stroke-linejoin="round"/>
<path d="M19.0619 59.7837H50.3724" stroke="#301111" stroke-width="1.24983" stroke-linecap="round" stroke-linejoin="round"/>
<path d="M50.3724 40.2085V59.7838H52.6135C52.9927 59.7843 53.3683 59.71 53.7187 59.5651C54.0692 59.4203 54.3876 59.2077 54.6557 58.9395C54.9238 58.6714 55.1364 58.353 55.2813 58.0026C55.4262 57.6521 55.5005 57.2766 55.5 56.8974V42.3144C55.5 41.7566 55.2787 41.2215 54.8846 40.8267C54.4905 40.4318 53.9558 40.2095 53.398 40.2085H50.3724Z" stroke="#301111" stroke-width="1.24983" stroke-linecap="round" stroke-linejoin="round"/>
<path d="M44.0701 35.2082H47.7101C48.4158 35.2072 49.0924 34.9264 49.5915 34.4273C50.0906 33.9283 50.3714 33.2517 50.3724 32.5459V22.3371C50.3724 22.0619 50.3181 21.7894 50.2125 21.5353C50.107 21.2811 49.9523 21.0504 49.7574 20.8561C49.5624 20.6619 49.3311 20.5081 49.0766 20.4035C48.8221 20.2989 48.5494 20.2456 48.2742 20.2466H21.6779C21.3041 20.2466 20.934 20.3203 20.5887 20.4634C20.2434 20.6066 19.9297 20.8164 19.6655 21.0809C19.4014 21.3454 19.192 21.6594 19.0493 22.0049C18.9066 22.3504 18.8334 22.7206 18.8339 23.0944V33.025C18.8339 33.6225 19.0713 34.1955 19.4938 34.618C19.9162 35.0404 20.4892 35.2778 21.0867 35.2778H25.9515" stroke="#301111" stroke-width="1.24983" stroke-linecap="round" stroke-linejoin="round"/>
</svg>
