<svg width="70" height="70" viewBox="0 0 70 70" fill="none" xmlns="http://www.w3.org/2000/svg">
<path d="M30.1275 35.7383L27.0721 42.2625L33.0995 38.9989" stroke="#301111" stroke-width="1.5" stroke-linecap="round" stroke-linejoin="round"/>
<path d="M35.0363 30.1275L41.5813 26.6943L38.8829 32.8258" stroke="#301111" stroke-width="1.5" stroke-linecap="round" stroke-linejoin="round"/>
<path d="M34.709 55.4179C46.1462 55.4179 55.4179 46.1462 55.4179 34.709C55.4179 23.2717 46.1462 14 34.709 14C23.2717 14 14 23.2717 14 34.709C14 46.1462 23.2717 55.4179 34.709 55.4179Z" stroke="#301111" stroke-width="1.5" stroke-linecap="round" stroke-linejoin="round"/>
<path d="M34.7089 39.2909C37.2392 39.2909 39.2904 37.2397 39.2904 34.7094C39.2904 32.1791 37.2392 30.1279 34.7089 30.1279C32.1786 30.1279 30.1274 32.1791 30.1274 34.7094C30.1274 37.2397 32.1786 39.2909 34.7089 39.2909Z" stroke="#301111" stroke-width="1.5" stroke-linecap="round" stroke-linejoin="round"/>
</svg>
