<svg width="207" height="151" viewBox="0 0 207 151" fill="none" xmlns="http://www.w3.org/2000/svg">
<g clip-path="url(#clip0_177_1019)">
<path d="M23.7359 124.835L0 148.747" stroke="#A27474" stroke-width="0.674699" stroke-miterlimit="10" stroke-linecap="round"/>
<path d="M182.547 124.255L206.458 147.991" stroke="#A27474" stroke-width="0.674699" stroke-miterlimit="10" stroke-linecap="round"/>
<path d="M174.585 119.6L183.289 124.43L183.208 124.876L172.655 124.349L174.585 119.6Z" fill="#E0B424"/>
<path d="M31.6164 120.288L33.5191 124.781L22.7239 125.523L22.5754 124.903L31.6164 120.288Z" fill="#E0B424"/>
<path d="M174.895 119.1C171.198 127.858 167.609 136.413 163.938 144.914C163.76 145.203 163.517 145.447 163.23 145.627C162.942 145.807 162.616 145.919 162.279 145.953C157.933 146.034 153.588 146.088 149.243 145.953C148.143 145.802 147.111 145.333 146.275 144.604C137.638 137.992 130.892 129.639 124.927 120.531C115.225 105.552 108.829 89.157 104.349 71.9522C104.133 71.1291 103.809 70.3329 103.539 69.5233H102.945C102.649 70.3059 102.311 71.0751 102.082 71.8712C96.8192 90.1691 89.6539 107.617 79.1421 123.54C73.9412 131.638 67.4556 138.834 59.9402 144.847C59.14 145.485 58.1674 145.871 57.1469 145.953C52.7344 146.075 48.3084 146.048 43.8824 145.953C43.5075 145.949 43.1384 145.86 42.8021 145.695C42.4658 145.529 42.171 145.29 41.9392 144.995C38.3498 136.696 34.8684 128.357 31.2925 119.829C57.9931 104.682 82.1866 85.4908 103.013 62.9382C113.236 74.2938 124.533 84.6334 136.748 93.8125C148.896 103.068 161.639 111.516 174.895 119.1Z" fill="#F3EFE2"/>
<path d="M150.121 146.034H56.3914C81.2203 124.984 93.5403 97.3614 103.202 67.7017C111.933 97.8067 124.846 125.119 150.121 146.034Z" fill="#E1D9BF"/>
<path d="M102.878 38.8379L183.316 124.444C153.454 108.44 125.966 89.3593 103.027 63.7208C79.6145 88.6981 53.4227 109.857 22.5754 125.024L102.878 38.8379Z" fill="#FFD449"/>
</g>
<path d="M93.4399 38.56C93.4399 39.6 93.1799 40.47 92.6599 41.17C92.1399 41.87 91.3999 42.4 90.4399 42.76C89.4799 43.12 88.3399 43.3 87.0199 43.3C85.8999 43.3 84.9299 43.21 84.1099 43.03C83.3099 42.85 82.5999 42.6 81.9799 42.28V39.88C82.6199 40.2 83.3899 40.5 84.2899 40.78C85.2099 41.04 86.1399 41.17 87.0799 41.17C88.4199 41.17 89.3899 40.96 89.9899 40.54C90.5899 40.1 90.8899 39.52 90.8899 38.8C90.8899 38.4 90.7799 38.04 90.5599 37.72C90.3399 37.4 89.9399 37.08 89.3599 36.76C88.7999 36.44 87.9899 36.08 86.9299 35.68C85.8899 35.28 84.9999 34.88 84.2599 34.48C83.5199 34.08 82.9499 33.6 82.5499 33.04C82.1499 32.48 81.9499 31.76 81.9499 30.88C81.9499 29.52 82.4999 28.47 83.5999 27.73C84.7199 26.99 86.1799 26.62 87.9799 26.62C88.9599 26.62 89.8699 26.72 90.7099 26.92C91.5699 27.1 92.3699 27.36 93.1099 27.7L92.2099 29.8C91.7699 29.6 91.2999 29.43 90.7999 29.29C90.3199 29.13 89.8299 29.01 89.3299 28.93C88.8299 28.83 88.3199 28.78 87.7999 28.78C86.7199 28.78 85.8899 28.96 85.3099 29.32C84.7499 29.66 84.4699 30.13 84.4699 30.73C84.4699 31.17 84.5999 31.55 84.8599 31.87C85.1199 32.17 85.5499 32.47 86.1499 32.77C86.7699 33.05 87.5899 33.39 88.6099 33.79C89.6299 34.17 90.4999 34.56 91.2199 34.96C91.9399 35.36 92.4899 35.85 92.8699 36.43C93.2499 36.99 93.4399 37.7 93.4399 38.56ZM102.695 41.14C103.095 41.14 103.505 41.11 103.925 41.05C104.345 40.97 104.685 40.89 104.945 40.81V42.82C104.665 42.96 104.265 43.07 103.745 43.15C103.225 43.25 102.725 43.3 102.245 43.3C101.405 43.3 100.625 43.16 99.9054 42.88C99.2054 42.58 98.6354 42.07 98.1954 41.35C97.7554 40.63 97.5354 39.62 97.5354 38.32V28.96H95.2554V27.7L97.5654 26.65L98.6154 23.23H100.175V26.92H104.825V28.96H100.175V38.26C100.175 39.24 100.405 39.97 100.865 40.45C101.345 40.91 101.955 41.14 102.695 41.14ZM114.375 26.62C115.755 26.62 116.935 26.92 117.915 27.52C118.915 28.12 119.675 28.97 120.195 30.07C120.735 31.15 121.005 32.42 121.005 33.88V35.47H109.995C110.035 37.29 110.495 38.68 111.375 39.64C112.275 40.58 113.525 41.05 115.125 41.05C116.145 41.05 117.045 40.96 117.825 40.78C118.625 40.58 119.445 40.3 120.285 39.94V42.25C119.465 42.61 118.655 42.87 117.855 43.03C117.055 43.21 116.105 43.3 115.005 43.3C113.485 43.3 112.135 42.99 110.955 42.37C109.795 41.75 108.885 40.83 108.225 39.61C107.585 38.37 107.265 36.86 107.265 35.08C107.265 33.32 107.555 31.81 108.135 30.55C108.735 29.29 109.565 28.32 110.625 27.64C111.705 26.96 112.955 26.62 114.375 26.62ZM114.345 28.78C113.085 28.78 112.085 29.19 111.345 30.01C110.625 30.81 110.195 31.93 110.055 33.37H118.245C118.245 32.45 118.105 31.65 117.825 30.97C117.545 30.29 117.115 29.76 116.535 29.38C115.975 28.98 115.245 28.78 114.345 28.78ZM132.749 26.62C134.729 26.62 136.319 27.31 137.519 28.69C138.739 30.07 139.349 32.15 139.349 34.93C139.349 36.75 139.069 38.29 138.509 39.55C137.969 40.79 137.199 41.73 136.199 42.37C135.219 42.99 134.059 43.3 132.719 43.3C131.899 43.3 131.169 43.19 130.529 42.97C129.889 42.75 129.339 42.47 128.879 42.13C128.439 41.77 128.059 41.38 127.739 40.96H127.559C127.599 41.3 127.639 41.73 127.679 42.25C127.719 42.77 127.739 43.22 127.739 43.6V50.2H125.099V26.92H127.259L127.619 29.11H127.739C128.059 28.65 128.439 28.23 128.879 27.85C129.339 27.47 129.879 27.17 130.499 26.95C131.139 26.73 131.889 26.62 132.749 26.62ZM132.269 28.84C131.189 28.84 130.319 29.05 129.659 29.47C128.999 29.87 128.519 30.48 128.219 31.3C127.919 32.12 127.759 33.16 127.739 34.42V34.93C127.739 36.25 127.879 37.37 128.159 38.29C128.439 39.21 128.909 39.91 129.569 40.39C130.249 40.87 131.169 41.11 132.329 41.11C133.309 41.11 134.109 40.84 134.729 40.3C135.369 39.76 135.839 39.03 136.139 38.11C136.459 37.17 136.619 36.1 136.619 34.9C136.619 33.06 136.259 31.59 135.539 30.49C134.839 29.39 133.749 28.84 132.269 28.84ZM170.199 28.72C170.199 31.0133 170.012 33.0667 169.639 34.88C169.292 36.6933 168.719 38.24 167.919 39.52C167.145 40.7733 166.119 41.7333 164.839 42.4C163.585 43.0667 162.039 43.4 160.199 43.4C157.905 43.4 156.025 42.8133 154.559 41.64C153.092 40.4667 151.999 38.7867 151.279 36.6C150.585 34.4133 150.239 31.7867 150.239 28.72C150.239 25.6267 150.559 22.9867 151.199 20.8C151.839 18.6133 152.892 16.9333 154.359 15.76C155.825 14.5867 157.772 14 160.199 14C162.492 14 164.372 14.5867 165.839 15.76C167.305 16.9067 168.399 18.5867 169.119 20.8C169.839 22.9867 170.199 25.6267 170.199 28.72ZM156.239 28.72C156.239 30.88 156.359 32.6933 156.599 34.16C156.839 35.6 157.239 36.6933 157.799 37.44C158.385 38.16 159.185 38.52 160.199 38.52C161.212 38.52 161.999 38.16 162.559 37.44C163.145 36.72 163.559 35.64 163.799 34.2C164.065 32.7333 164.199 30.9067 164.199 28.72C164.199 26.5333 164.065 24.72 163.799 23.28C163.559 21.8133 163.145 20.72 162.559 20C161.999 19.2533 161.212 18.88 160.199 18.88C159.185 18.88 158.385 19.2533 157.799 20C157.239 20.72 156.839 21.8133 156.599 23.28C156.359 24.72 156.239 26.5333 156.239 28.72ZM193.249 43H173.289V38.8L180.449 31.56C181.889 30.0667 183.049 28.8267 183.929 27.84C184.809 26.8267 185.449 25.92 185.849 25.12C186.249 24.2933 186.449 23.4133 186.449 22.48C186.449 21.3333 186.129 20.48 185.489 19.92C184.876 19.36 184.036 19.08 182.969 19.08C181.876 19.08 180.809 19.3333 179.769 19.84C178.729 20.3467 177.636 21.0667 176.489 22L173.209 18.12C174.036 17.4 174.903 16.7333 175.809 16.12C176.743 15.5067 177.809 15.0133 179.009 14.64C180.236 14.24 181.703 14.04 183.409 14.04C185.276 14.04 186.876 14.3867 188.209 15.08C189.569 15.7467 190.609 16.6667 191.329 17.84C192.076 18.9867 192.449 20.2933 192.449 21.76C192.449 22.96 192.263 24.0667 191.889 25.08C191.543 26.0933 191.023 27.08 190.329 28.04C189.663 28.9733 188.836 29.9467 187.849 30.96C186.863 31.9467 185.743 33.0267 184.489 34.2L180.809 37.64V37.92H193.249V43Z" fill="#301111"/>
<defs>
<clipPath id="clip0_177_1019">
<rect width="206.458" height="112" fill="white" transform="translate(0 39)"/>
</clipPath>
</defs>
</svg>
