<svg width="151" height="178" viewBox="0 0 151 178" fill="none" xmlns="http://www.w3.org/2000/svg">
<g clip-path="url(#clip0_178_354)">
<path d="M10.3722 23.9228C10.3722 23.9228 -20.5771 52.6972 24.1739 63.4877C25.5959 63.7386 61.1457 72.5215 101.212 57.2142C103.053 56.4613 132.998 44.4999 106.231 20.0751C103.889 18.0675 78.9624 -3.76422 51.2754 0.585404C49.7697 0.752697 29.6946 3.01116 10.3722 23.9228Z" fill="#BA6C65"/>
<path d="M37.8921 65.6626C37.8921 65.6626 12.9654 176.996 57.3818 178C60.1421 177.916 78.9626 179.338 82.894 150.899C83.3122 146.967 85.3198 132.245 79.2972 99.7905C78.9626 97.1138 74.1111 75.0311 73.8602 64.8262" fill="#F3EFE2" style="mix-blend-mode:soft-light"/>
<path d="M40.1546 26.0998C39.9757 26.0964 39.7981 26.0873 39.6221 26.0726C39.824 26.0881 40.028 26.096 40.2337 26.096C40.3423 26.096 40.4505 26.0938 40.5581 26.0895C40.4245 26.0962 40.29 26.0997 40.1546 26.0998Z" fill="white" stroke="white"/>
<mask id="path-4-inside-1_178_354" fill="white">
<path d="M48.8495 38.5611C53.6174 38.5611 57.4651 42.4088 57.4651 47.1767C57.4651 51.9445 53.6174 55.7923 48.8495 55.7923C44.0817 55.7923 40.2339 51.8609 40.2339 47.093C40.2339 42.4088 44.0817 38.5611 48.8495 38.5611ZM48.8495 37.7246C43.6634 37.7246 39.3975 41.9906 39.3975 47.1767C39.3975 52.3628 43.6634 56.6287 48.8495 56.6287C54.0356 56.6287 58.3016 52.3628 58.3016 47.1767C58.3016 41.9069 54.1193 37.7246 48.8495 37.7246Z"/>
</mask>
<path d="M48.8495 38.5611C53.6174 38.5611 57.4651 42.4088 57.4651 47.1767C57.4651 51.9445 53.6174 55.7923 48.8495 55.7923C44.0817 55.7923 40.2339 51.8609 40.2339 47.093C40.2339 42.4088 44.0817 38.5611 48.8495 38.5611ZM48.8495 37.7246C43.6634 37.7246 39.3975 41.9906 39.3975 47.1767C39.3975 52.3628 43.6634 56.6287 48.8495 56.6287C54.0356 56.6287 58.3016 52.3628 58.3016 47.1767C58.3016 41.9069 54.1193 37.7246 48.8495 37.7246Z" fill="white"/>
<path d="M58.3016 47.1767H57.3016H58.3016ZM48.8495 39.5611C53.0651 39.5611 56.4651 42.9611 56.4651 47.1767H58.4651C58.4651 41.8565 54.1697 37.5611 48.8495 37.5611V39.5611ZM56.4651 47.1767C56.4651 51.3923 53.0651 54.7923 48.8495 54.7923V56.7923C54.1697 56.7923 58.4651 52.4968 58.4651 47.1767H56.4651ZM48.8495 54.7923C44.6465 54.7923 41.2339 51.3212 41.2339 47.093H39.2339C39.2339 52.4006 43.5169 56.7923 48.8495 56.7923V54.7923ZM41.2339 47.093C41.2339 42.9674 44.6276 39.5611 48.8495 39.5611V37.5611C43.5357 37.5611 39.2339 41.8502 39.2339 47.093H41.2339ZM48.8495 36.7246C43.1112 36.7246 38.3975 41.4383 38.3975 47.1767H40.3975C40.3975 42.5429 44.2157 38.7246 48.8495 38.7246V36.7246ZM38.3975 47.1767C38.3975 52.9151 43.1112 57.6287 48.8495 57.6287V55.6287C44.2157 55.6287 40.3975 51.8105 40.3975 47.1767H38.3975ZM48.8495 57.6287C54.5879 57.6287 59.3016 52.9151 59.3016 47.1767H57.3016C57.3016 51.8105 53.4833 55.6287 48.8495 55.6287V57.6287ZM59.3016 47.1767C59.3016 41.3547 54.6716 36.7246 48.8495 36.7246V38.7246C53.567 38.7246 57.3016 42.4592 57.3016 47.1767H59.3016Z" fill="white" mask="url(#path-4-inside-1_178_354)"/>
<mask id="path-6-inside-2_178_354" fill="white">
<path d="M90.0875 29.2764C95.6082 29.2764 100.041 33.7933 100.041 39.314C100.041 44.8347 95.5246 49.2679 90.0039 49.2679C84.4832 49.2679 80.0499 44.751 80.0499 39.2304C80.1336 33.7097 84.5669 29.2764 90.0875 29.2764ZM90.0875 28.4399C84.1486 28.4399 79.2971 33.2078 79.2135 39.2304C79.1298 45.2529 83.9813 50.0208 90.0039 50.1044C95.9428 50.1044 100.794 45.3366 100.878 39.314C100.962 33.3751 96.1101 28.4399 90.0875 28.4399Z"/>
</mask>
<path d="M90.0875 29.2764C95.6082 29.2764 100.041 33.7933 100.041 39.314C100.041 44.8347 95.5246 49.2679 90.0039 49.2679C84.4832 49.2679 80.0499 44.751 80.0499 39.2304C80.1336 33.7097 84.5669 29.2764 90.0875 29.2764ZM90.0875 28.4399C84.1486 28.4399 79.2971 33.2078 79.2135 39.2304C79.1298 45.2529 83.9813 50.0208 90.0039 50.1044C95.9428 50.1044 100.794 45.3366 100.878 39.314C100.962 33.3751 96.1101 28.4399 90.0875 28.4399Z" fill="white"/>
<path d="M80.0499 39.2304L79.05 39.2152L79.0499 39.2228V39.2304H80.0499ZM90.0039 50.1044L89.99 51.1044H90.0039V50.1044ZM100.878 39.314L99.878 39.2999L99.878 39.3001L100.878 39.314ZM90.0875 30.2764C95.0451 30.2764 99.0415 34.3347 99.0415 39.314H101.041C101.041 33.252 96.1714 28.2764 90.0875 28.2764V30.2764ZM99.0415 39.314C99.0415 44.2715 94.9832 48.268 90.0039 48.268V50.268C96.0659 50.268 101.041 45.3978 101.041 39.314H99.0415ZM90.0039 48.268C85.0464 48.268 81.0499 44.2097 81.0499 39.2304H79.0499C79.0499 45.2924 83.9201 50.268 90.0039 50.268V48.268ZM81.0498 39.2455C81.1253 34.2624 85.122 30.2764 90.0875 30.2764V28.2764C84.0117 28.2764 79.1418 33.157 79.05 39.2152L81.0498 39.2455ZM90.0875 27.4399C83.5988 27.4399 78.3048 32.6501 78.2136 39.2165L80.2134 39.2442C80.2895 33.7655 84.6985 29.4399 90.0875 29.4399V27.4399ZM78.2136 39.2165C78.1219 45.8173 83.4416 51.0134 89.99 51.1043L90.0178 49.1045C84.5211 49.0282 80.1378 44.6886 80.2134 39.2442L78.2136 39.2165ZM90.0039 51.1044C96.4926 51.1044 101.787 45.8943 101.878 39.3279L99.878 39.3001C99.8019 44.7788 95.3929 49.1044 90.0039 49.1044V51.1044ZM101.878 39.3281C101.969 32.8282 96.6646 27.4399 90.0875 27.4399V29.4399C95.5556 29.4399 99.9538 33.922 99.878 39.2999L101.878 39.3281Z" fill="white" mask="url(#path-6-inside-2_178_354)"/>
<mask id="path-8-inside-3_178_354" fill="white">
<path d="M68.7577 12.1289C75.0312 12.1289 80.1336 17.1477 80.1336 23.4212C80.1336 29.6947 75.1148 34.7972 68.8413 34.7972C62.5678 34.7972 57.4654 29.7784 57.4654 23.5049V23.4212C57.4654 17.2314 62.5678 12.1289 68.7577 12.1289ZM68.8413 11.2925C62.1496 11.2925 56.6289 16.7295 56.6289 23.5049C56.6289 30.2803 62.0659 35.7173 68.8413 35.7173C75.6167 35.7173 81.0537 30.2803 81.0537 23.5049C80.9701 16.8132 75.533 11.2925 68.8413 11.2925Z"/>
</mask>
<path d="M68.7577 12.1289C75.0312 12.1289 80.1336 17.1477 80.1336 23.4212C80.1336 29.6947 75.1148 34.7972 68.8413 34.7972C62.5678 34.7972 57.4654 29.7784 57.4654 23.5049V23.4212C57.4654 17.2314 62.5678 12.1289 68.7577 12.1289ZM68.8413 11.2925C62.1496 11.2925 56.6289 16.7295 56.6289 23.5049C56.6289 30.2803 62.0659 35.7173 68.8413 35.7173C75.6167 35.7173 81.0537 30.2803 81.0537 23.5049C80.9701 16.8132 75.533 11.2925 68.8413 11.2925Z" fill="white"/>
<path d="M81.0537 23.5049H82.0538L82.0536 23.4924L81.0537 23.5049ZM68.7577 13.1289C74.4885 13.1289 79.1336 17.7096 79.1336 23.4212H81.1336C81.1336 16.5859 75.5738 11.1289 68.7577 11.1289V13.1289ZM79.1336 23.4212C79.1336 29.1521 74.5529 33.7972 68.8413 33.7972V35.7972C75.6767 35.7972 81.1336 30.2374 81.1336 23.4212H79.1336ZM68.8413 33.7972C63.1105 33.7972 58.4654 29.2165 58.4654 23.5049H56.4654C56.4654 30.3403 62.0252 35.7972 68.8413 35.7972V33.7972ZM58.4654 23.5049V23.4212H56.4654V23.5049H58.4654ZM58.4654 23.4212C58.4654 17.7837 63.1201 13.1289 68.7577 13.1289V11.1289C62.0155 11.1289 56.4654 16.6791 56.4654 23.4212H58.4654ZM68.8413 10.2925C61.6018 10.2925 55.6289 16.1728 55.6289 23.5049H57.6289C57.6289 17.2862 62.6974 12.2925 68.8413 12.2925V10.2925ZM55.6289 23.5049C55.6289 30.8325 61.5137 36.7173 68.8413 36.7173V34.7173C62.6182 34.7173 57.6289 29.728 57.6289 23.5049H55.6289ZM68.8413 36.7173C76.169 36.7173 82.0537 30.8325 82.0537 23.5049H80.0537C80.0537 29.728 75.0644 34.7173 68.8413 34.7173V36.7173ZM82.0536 23.4924C81.9634 16.2695 76.0965 10.2925 68.8413 10.2925V12.2925C74.9696 12.2925 79.9768 17.3568 80.0538 23.5174L82.0536 23.4924Z" fill="white" mask="url(#path-8-inside-3_178_354)"/>
</g>
<path d="M102.499 107.56C102.499 108.6 102.239 109.47 101.719 110.17C101.199 110.87 100.459 111.4 99.4995 111.76C98.5395 112.12 97.3995 112.3 96.0795 112.3C94.9595 112.3 93.9895 112.21 93.1695 112.03C92.3695 111.85 91.6595 111.6 91.0395 111.28V108.88C91.6795 109.2 92.4495 109.5 93.3495 109.78C94.2695 110.04 95.1995 110.17 96.1395 110.17C97.4795 110.17 98.4495 109.96 99.0495 109.54C99.6495 109.1 99.9495 108.52 99.9495 107.8C99.9495 107.4 99.8395 107.04 99.6195 106.72C99.3995 106.4 98.9995 106.08 98.4195 105.76C97.8595 105.44 97.0495 105.08 95.9895 104.68C94.9495 104.28 94.0595 103.88 93.3195 103.48C92.5795 103.08 92.0095 102.6 91.6095 102.04C91.2095 101.48 91.0095 100.76 91.0095 99.88C91.0095 98.52 91.5595 97.47 92.6595 96.73C93.7795 95.99 95.2395 95.62 97.0395 95.62C98.0195 95.62 98.9295 95.72 99.7695 95.92C100.629 96.1 101.429 96.36 102.169 96.7L101.269 98.8C100.829 98.6 100.359 98.43 99.8595 98.29C99.3795 98.13 98.8895 98.01 98.3895 97.93C97.8895 97.83 97.3795 97.78 96.8595 97.78C95.7795 97.78 94.9495 97.96 94.3695 98.32C93.8095 98.66 93.5295 99.13 93.5295 99.73C93.5295 100.17 93.6595 100.55 93.9195 100.87C94.1795 101.17 94.6095 101.47 95.2095 101.77C95.8295 102.05 96.6495 102.39 97.6695 102.79C98.6895 103.17 99.5595 103.56 100.279 103.96C100.999 104.36 101.549 104.85 101.929 105.43C102.309 105.99 102.499 106.7 102.499 107.56ZM111.755 110.14C112.155 110.14 112.565 110.11 112.985 110.05C113.405 109.97 113.745 109.89 114.005 109.81V111.82C113.725 111.96 113.325 112.07 112.805 112.15C112.285 112.25 111.785 112.3 111.305 112.3C110.465 112.3 109.685 112.16 108.965 111.88C108.265 111.58 107.695 111.07 107.255 110.35C106.815 109.63 106.595 108.62 106.595 107.32V97.96H104.315V96.7L106.625 95.65L107.675 92.23H109.235V95.92H113.885V97.96H109.235V107.26C109.235 108.24 109.465 108.97 109.925 109.45C110.405 109.91 111.015 110.14 111.755 110.14ZM123.435 95.62C124.815 95.62 125.995 95.92 126.975 96.52C127.975 97.12 128.735 97.97 129.255 99.07C129.795 100.15 130.065 101.42 130.065 102.88V104.47H119.055C119.095 106.29 119.555 107.68 120.435 108.64C121.335 109.58 122.585 110.05 124.185 110.05C125.205 110.05 126.105 109.96 126.885 109.78C127.685 109.58 128.505 109.3 129.345 108.94V111.25C128.525 111.61 127.715 111.87 126.915 112.03C126.115 112.21 125.165 112.3 124.065 112.3C122.545 112.3 121.195 111.99 120.015 111.37C118.855 110.75 117.945 109.83 117.285 108.61C116.645 107.37 116.325 105.86 116.325 104.08C116.325 102.32 116.615 100.81 117.195 99.55C117.795 98.29 118.625 97.32 119.685 96.64C120.765 95.96 122.015 95.62 123.435 95.62ZM123.405 97.78C122.145 97.78 121.145 98.19 120.405 99.01C119.685 99.81 119.255 100.93 119.115 102.37H127.305C127.305 101.45 127.165 100.65 126.885 99.97C126.605 99.29 126.175 98.76 125.595 98.38C125.035 97.98 124.305 97.78 123.405 97.78ZM141.808 95.62C143.788 95.62 145.378 96.31 146.578 97.69C147.798 99.07 148.408 101.15 148.408 103.93C148.408 105.75 148.128 107.29 147.568 108.55C147.028 109.79 146.258 110.73 145.258 111.37C144.278 111.99 143.118 112.3 141.778 112.3C140.958 112.3 140.228 112.19 139.588 111.97C138.948 111.75 138.398 111.47 137.938 111.13C137.498 110.77 137.118 110.38 136.798 109.96H136.618C136.658 110.3 136.698 110.73 136.738 111.25C136.778 111.77 136.798 112.22 136.798 112.6V119.2H134.158V95.92H136.318L136.678 98.11H136.798C137.118 97.65 137.498 97.23 137.938 96.85C138.398 96.47 138.938 96.17 139.558 95.95C140.198 95.73 140.948 95.62 141.808 95.62ZM141.328 97.84C140.248 97.84 139.378 98.05 138.718 98.47C138.058 98.87 137.578 99.48 137.278 100.3C136.978 101.12 136.818 102.16 136.798 103.42V103.93C136.798 105.25 136.938 106.37 137.218 107.29C137.498 108.21 137.968 108.91 138.628 109.39C139.308 109.87 140.228 110.11 141.388 110.11C142.368 110.11 143.168 109.84 143.788 109.3C144.428 108.76 144.898 108.03 145.198 107.11C145.518 106.17 145.678 105.1 145.678 103.9C145.678 102.06 145.318 100.59 144.598 99.49C143.898 98.39 142.808 97.84 141.328 97.84ZM118.282 151.72C118.282 154.013 118.095 156.067 117.722 157.88C117.375 159.693 116.802 161.24 116.002 162.52C115.229 163.773 114.202 164.733 112.922 165.4C111.669 166.067 110.122 166.4 108.282 166.4C105.989 166.4 104.109 165.813 102.642 164.64C101.175 163.467 100.082 161.787 99.3618 159.6C98.6685 157.413 98.3218 154.787 98.3218 151.72C98.3218 148.627 98.6418 145.987 99.2818 143.8C99.9218 141.613 100.975 139.933 102.442 138.76C103.909 137.587 105.855 137 108.282 137C110.575 137 112.455 137.587 113.922 138.76C115.389 139.907 116.482 141.587 117.202 143.8C117.922 145.987 118.282 148.627 118.282 151.72ZM104.322 151.72C104.322 153.88 104.442 155.693 104.682 157.16C104.922 158.6 105.322 159.693 105.882 160.44C106.469 161.16 107.269 161.52 108.282 161.52C109.295 161.52 110.082 161.16 110.642 160.44C111.229 159.72 111.642 158.64 111.882 157.2C112.149 155.733 112.282 153.907 112.282 151.72C112.282 149.533 112.149 147.72 111.882 146.28C111.642 144.813 111.229 143.72 110.642 143C110.082 142.253 109.295 141.88 108.282 141.88C107.269 141.88 106.469 142.253 105.882 143C105.322 143.72 104.922 144.813 104.682 146.28C104.442 147.72 104.322 149.533 104.322 151.72ZM136.292 166H130.252V149.48C130.252 149.027 130.252 148.467 130.252 147.8C130.279 147.133 130.306 146.44 130.332 145.72C130.359 145 130.386 144.36 130.412 143.8C130.279 143.96 129.986 144.253 129.532 144.68C129.106 145.08 128.706 145.44 128.332 145.76L125.052 148.4L122.132 144.76L131.332 137.44H136.292V166Z" fill="#301111"/>
<defs>
<clipPath id="clip0_178_354">
<rect width="117.273" height="178" fill="white"/>
</clipPath>
</defs>
</svg>
