<svg width="150" height="178" viewBox="0 0 150 178" fill="none" xmlns="http://www.w3.org/2000/svg">
<g clip-path="url(#clip0_188_990)">
<path d="M10.3722 23.9228C10.3722 23.9228 -20.5771 52.6972 24.1739 63.4877C25.5959 63.7386 61.1457 72.5215 101.212 57.2142C103.053 56.4613 132.998 44.4999 106.231 20.0751C103.889 18.0675 78.9624 -3.76422 51.2754 0.585404C49.7697 0.752697 29.6946 3.01116 10.3722 23.9228Z" fill="#BA6C65"/>
<path d="M37.8921 65.6626C37.8921 65.6626 12.9654 176.996 57.3818 178C60.1421 177.916 78.9626 179.338 82.894 150.899C83.3122 146.967 85.3198 132.245 79.2972 99.7905C78.9626 97.1138 74.1111 75.0311 73.8602 64.8262" fill="#F3EFE2"/>
<path d="M40.1546 26.0998C39.9757 26.0964 39.7981 26.0873 39.6221 26.0726C39.824 26.0881 40.028 26.096 40.2337 26.096C40.3423 26.096 40.4505 26.0938 40.5581 26.0895C40.4245 26.0962 40.29 26.0997 40.1546 26.0998Z" fill="white" stroke="white"/>
<mask id="path-4-inside-1_188_990" fill="white">
<path d="M48.8495 38.5611C53.6174 38.5611 57.4651 42.4088 57.4651 47.1767C57.4651 51.9445 53.6174 55.7923 48.8495 55.7923C44.0817 55.7923 40.2339 51.8609 40.2339 47.093C40.2339 42.4088 44.0817 38.5611 48.8495 38.5611ZM48.8495 37.7246C43.6634 37.7246 39.3975 41.9906 39.3975 47.1767C39.3975 52.3628 43.6634 56.6287 48.8495 56.6287C54.0356 56.6287 58.3016 52.3628 58.3016 47.1767C58.3016 41.9069 54.1193 37.7246 48.8495 37.7246Z"/>
</mask>
<path d="M48.8495 38.5611C53.6174 38.5611 57.4651 42.4088 57.4651 47.1767C57.4651 51.9445 53.6174 55.7923 48.8495 55.7923C44.0817 55.7923 40.2339 51.8609 40.2339 47.093C40.2339 42.4088 44.0817 38.5611 48.8495 38.5611ZM48.8495 37.7246C43.6634 37.7246 39.3975 41.9906 39.3975 47.1767C39.3975 52.3628 43.6634 56.6287 48.8495 56.6287C54.0356 56.6287 58.3016 52.3628 58.3016 47.1767C58.3016 41.9069 54.1193 37.7246 48.8495 37.7246Z" fill="white"/>
<path d="M58.3016 47.1767H57.3016H58.3016ZM48.8495 39.5611C53.0651 39.5611 56.4651 42.9611 56.4651 47.1767H58.4651C58.4651 41.8565 54.1697 37.5611 48.8495 37.5611V39.5611ZM56.4651 47.1767C56.4651 51.3923 53.0651 54.7923 48.8495 54.7923V56.7923C54.1697 56.7923 58.4651 52.4968 58.4651 47.1767H56.4651ZM48.8495 54.7923C44.6465 54.7923 41.2339 51.3212 41.2339 47.093H39.2339C39.2339 52.4006 43.5169 56.7923 48.8495 56.7923V54.7923ZM41.2339 47.093C41.2339 42.9674 44.6276 39.5611 48.8495 39.5611V37.5611C43.5357 37.5611 39.2339 41.8502 39.2339 47.093H41.2339ZM48.8495 36.7246C43.1112 36.7246 38.3975 41.4383 38.3975 47.1767H40.3975C40.3975 42.5429 44.2157 38.7246 48.8495 38.7246V36.7246ZM38.3975 47.1767C38.3975 52.9151 43.1112 57.6287 48.8495 57.6287V55.6287C44.2157 55.6287 40.3975 51.8105 40.3975 47.1767H38.3975ZM48.8495 57.6287C54.5879 57.6287 59.3016 52.9151 59.3016 47.1767H57.3016C57.3016 51.8105 53.4833 55.6287 48.8495 55.6287V57.6287ZM59.3016 47.1767C59.3016 41.3547 54.6716 36.7246 48.8495 36.7246V38.7246C53.567 38.7246 57.3016 42.4592 57.3016 47.1767H59.3016Z" fill="white" mask="url(#path-4-inside-1_188_990)"/>
<mask id="path-6-inside-2_188_990" fill="white">
<path d="M90.0875 29.2764C95.6082 29.2764 100.041 33.7933 100.041 39.314C100.041 44.8347 95.5246 49.2679 90.0039 49.2679C84.4832 49.2679 80.0499 44.751 80.0499 39.2304C80.1336 33.7097 84.5669 29.2764 90.0875 29.2764ZM90.0875 28.4399C84.1486 28.4399 79.2971 33.2078 79.2135 39.2304C79.1298 45.2529 83.9813 50.0208 90.0039 50.1044C95.9428 50.1044 100.794 45.3366 100.878 39.314C100.962 33.3751 96.1101 28.4399 90.0875 28.4399Z"/>
</mask>
<path d="M90.0875 29.2764C95.6082 29.2764 100.041 33.7933 100.041 39.314C100.041 44.8347 95.5246 49.2679 90.0039 49.2679C84.4832 49.2679 80.0499 44.751 80.0499 39.2304C80.1336 33.7097 84.5669 29.2764 90.0875 29.2764ZM90.0875 28.4399C84.1486 28.4399 79.2971 33.2078 79.2135 39.2304C79.1298 45.2529 83.9813 50.0208 90.0039 50.1044C95.9428 50.1044 100.794 45.3366 100.878 39.314C100.962 33.3751 96.1101 28.4399 90.0875 28.4399Z" fill="white"/>
<path d="M80.0499 39.2304L79.05 39.2152L79.0499 39.2228V39.2304H80.0499ZM90.0039 50.1044L89.99 51.1044H90.0039V50.1044ZM100.878 39.314L99.878 39.2999L99.878 39.3001L100.878 39.314ZM90.0875 30.2764C95.0451 30.2764 99.0415 34.3347 99.0415 39.314H101.041C101.041 33.252 96.1714 28.2764 90.0875 28.2764V30.2764ZM99.0415 39.314C99.0415 44.2715 94.9832 48.268 90.0039 48.268V50.268C96.0659 50.268 101.041 45.3978 101.041 39.314H99.0415ZM90.0039 48.268C85.0464 48.268 81.0499 44.2097 81.0499 39.2304H79.0499C79.0499 45.2924 83.9201 50.268 90.0039 50.268V48.268ZM81.0498 39.2455C81.1253 34.2624 85.122 30.2764 90.0875 30.2764V28.2764C84.0117 28.2764 79.1418 33.157 79.05 39.2152L81.0498 39.2455ZM90.0875 27.4399C83.5988 27.4399 78.3048 32.6501 78.2136 39.2165L80.2134 39.2442C80.2895 33.7655 84.6985 29.4399 90.0875 29.4399V27.4399ZM78.2136 39.2165C78.1219 45.8173 83.4416 51.0134 89.99 51.1043L90.0178 49.1045C84.5211 49.0282 80.1378 44.6886 80.2134 39.2442L78.2136 39.2165ZM90.0039 51.1044C96.4926 51.1044 101.787 45.8943 101.878 39.3279L99.878 39.3001C99.8019 44.7788 95.3929 49.1044 90.0039 49.1044V51.1044ZM101.878 39.3281C101.969 32.8282 96.6646 27.4399 90.0875 27.4399V29.4399C95.5556 29.4399 99.9538 33.922 99.878 39.2999L101.878 39.3281Z" fill="white" mask="url(#path-6-inside-2_188_990)"/>
<mask id="path-8-inside-3_188_990" fill="white">
<path d="M68.7577 12.1289C75.0312 12.1289 80.1336 17.1477 80.1336 23.4212C80.1336 29.6947 75.1148 34.7972 68.8413 34.7972C62.5678 34.7972 57.4654 29.7784 57.4654 23.5049V23.4212C57.4654 17.2314 62.5678 12.1289 68.7577 12.1289ZM68.8413 11.2925C62.1496 11.2925 56.6289 16.7295 56.6289 23.5049C56.6289 30.2803 62.0659 35.7173 68.8413 35.7173C75.6167 35.7173 81.0537 30.2803 81.0537 23.5049C80.9701 16.8132 75.533 11.2925 68.8413 11.2925Z"/>
</mask>
<path d="M68.7577 12.1289C75.0312 12.1289 80.1336 17.1477 80.1336 23.4212C80.1336 29.6947 75.1148 34.7972 68.8413 34.7972C62.5678 34.7972 57.4654 29.7784 57.4654 23.5049V23.4212C57.4654 17.2314 62.5678 12.1289 68.7577 12.1289ZM68.8413 11.2925C62.1496 11.2925 56.6289 16.7295 56.6289 23.5049C56.6289 30.2803 62.0659 35.7173 68.8413 35.7173C75.6167 35.7173 81.0537 30.2803 81.0537 23.5049C80.9701 16.8132 75.533 11.2925 68.8413 11.2925Z" fill="white"/>
<path d="M81.0537 23.5049H82.0538L82.0536 23.4924L81.0537 23.5049ZM68.7577 13.1289C74.4885 13.1289 79.1336 17.7096 79.1336 23.4212H81.1336C81.1336 16.5859 75.5738 11.1289 68.7577 11.1289V13.1289ZM79.1336 23.4212C79.1336 29.1521 74.5529 33.7972 68.8413 33.7972V35.7972C75.6767 35.7972 81.1336 30.2374 81.1336 23.4212H79.1336ZM68.8413 33.7972C63.1105 33.7972 58.4654 29.2165 58.4654 23.5049H56.4654C56.4654 30.3403 62.0252 35.7972 68.8413 35.7972V33.7972ZM58.4654 23.5049V23.4212H56.4654V23.5049H58.4654ZM58.4654 23.4212C58.4654 17.7837 63.1201 13.1289 68.7577 13.1289V11.1289C62.0155 11.1289 56.4654 16.6791 56.4654 23.4212H58.4654ZM68.8413 10.2925C61.6018 10.2925 55.6289 16.1728 55.6289 23.5049H57.6289C57.6289 17.2862 62.6974 12.2925 68.8413 12.2925V10.2925ZM55.6289 23.5049C55.6289 30.8325 61.5137 36.7173 68.8413 36.7173V34.7173C62.6182 34.7173 57.6289 29.728 57.6289 23.5049H55.6289ZM68.8413 36.7173C76.169 36.7173 82.0537 30.8325 82.0537 23.5049H80.0537C80.0537 29.728 75.0644 34.7173 68.8413 34.7173V36.7173ZM82.0536 23.4924C81.9634 16.2695 76.0965 10.2925 68.8413 10.2925V12.2925C74.9696 12.2925 79.9768 17.3568 80.0538 23.5174L82.0536 23.4924Z" fill="white" mask="url(#path-8-inside-3_188_990)"/>
</g>
<path d="M102.227 107.56C102.227 108.6 101.967 109.47 101.447 110.17C100.927 110.87 100.187 111.4 99.227 111.76C98.267 112.12 97.127 112.3 95.807 112.3C94.687 112.3 93.717 112.21 92.897 112.03C92.097 111.85 91.387 111.6 90.767 111.28V108.88C91.407 109.2 92.177 109.5 93.077 109.78C93.997 110.04 94.927 110.17 95.867 110.17C97.207 110.17 98.177 109.96 98.777 109.54C99.377 109.1 99.677 108.52 99.677 107.8C99.677 107.4 99.567 107.04 99.347 106.72C99.127 106.4 98.727 106.08 98.147 105.76C97.587 105.44 96.777 105.08 95.717 104.68C94.677 104.28 93.787 103.88 93.047 103.48C92.307 103.08 91.737 102.6 91.337 102.04C90.937 101.48 90.737 100.76 90.737 99.88C90.737 98.52 91.287 97.47 92.387 96.73C93.507 95.99 94.967 95.62 96.767 95.62C97.747 95.62 98.657 95.72 99.497 95.92C100.357 96.1 101.157 96.36 101.897 96.7L100.997 98.8C100.557 98.6 100.087 98.43 99.587 98.29C99.107 98.13 98.617 98.01 98.117 97.93C97.617 97.83 97.107 97.78 96.587 97.78C95.507 97.78 94.677 97.96 94.097 98.32C93.537 98.66 93.257 99.13 93.257 99.73C93.257 100.17 93.387 100.55 93.647 100.87C93.907 101.17 94.337 101.47 94.937 101.77C95.557 102.05 96.377 102.39 97.397 102.79C98.417 103.17 99.287 103.56 100.007 103.96C100.727 104.36 101.277 104.85 101.657 105.43C102.037 105.99 102.227 106.7 102.227 107.56ZM111.482 110.14C111.883 110.14 112.293 110.11 112.713 110.05C113.133 109.97 113.473 109.89 113.733 109.81V111.82C113.453 111.96 113.053 112.07 112.533 112.15C112.013 112.25 111.513 112.3 111.033 112.3C110.193 112.3 109.413 112.16 108.693 111.88C107.993 111.58 107.423 111.07 106.983 110.35C106.543 109.63 106.323 108.62 106.323 107.32V97.96H104.043V96.7L106.353 95.65L107.403 92.23H108.963V95.92H113.613V97.96H108.963V107.26C108.963 108.24 109.193 108.97 109.653 109.45C110.133 109.91 110.743 110.14 111.482 110.14ZM123.162 95.62C124.542 95.62 125.722 95.92 126.702 96.52C127.702 97.12 128.462 97.97 128.982 99.07C129.522 100.15 129.792 101.42 129.792 102.88V104.47H118.782C118.822 106.29 119.282 107.68 120.162 108.64C121.062 109.58 122.312 110.05 123.912 110.05C124.932 110.05 125.832 109.96 126.612 109.78C127.412 109.58 128.232 109.3 129.072 108.94V111.25C128.252 111.61 127.442 111.87 126.642 112.03C125.842 112.21 124.892 112.3 123.792 112.3C122.272 112.3 120.922 111.99 119.742 111.37C118.582 110.75 117.672 109.83 117.012 108.61C116.372 107.37 116.052 105.86 116.052 104.08C116.052 102.32 116.342 100.81 116.922 99.55C117.522 98.29 118.352 97.32 119.412 96.64C120.492 95.96 121.742 95.62 123.162 95.62ZM123.132 97.78C121.872 97.78 120.872 98.19 120.132 99.01C119.412 99.81 118.982 100.93 118.842 102.37H127.032C127.032 101.45 126.892 100.65 126.612 99.97C126.332 99.29 125.902 98.76 125.322 98.38C124.762 97.98 124.032 97.78 123.132 97.78ZM141.536 95.62C143.516 95.62 145.106 96.31 146.306 97.69C147.526 99.07 148.136 101.15 148.136 103.93C148.136 105.75 147.856 107.29 147.296 108.55C146.756 109.79 145.986 110.73 144.986 111.37C144.006 111.99 142.846 112.3 141.506 112.3C140.686 112.3 139.956 112.19 139.316 111.97C138.676 111.75 138.126 111.47 137.666 111.13C137.226 110.77 136.846 110.38 136.526 109.96H136.346C136.386 110.3 136.426 110.73 136.466 111.25C136.506 111.77 136.526 112.22 136.526 112.6V119.2H133.886V95.92H136.046L136.406 98.11H136.526C136.846 97.65 137.226 97.23 137.666 96.85C138.126 96.47 138.666 96.17 139.286 95.95C139.926 95.73 140.676 95.62 141.536 95.62ZM141.056 97.84C139.976 97.84 139.106 98.05 138.446 98.47C137.786 98.87 137.306 99.48 137.006 100.3C136.706 101.12 136.546 102.16 136.526 103.42V103.93C136.526 105.25 136.666 106.37 136.946 107.29C137.226 108.21 137.696 108.91 138.356 109.39C139.036 109.87 139.956 110.11 141.116 110.11C142.096 110.11 142.896 109.84 143.516 109.3C144.156 108.76 144.626 108.03 144.926 107.11C145.246 106.17 145.406 105.1 145.406 103.9C145.406 102.06 145.046 100.59 144.326 99.49C143.626 98.39 142.536 97.84 141.056 97.84ZM118.009 151.72C118.009 154.013 117.823 156.067 117.449 157.88C117.103 159.693 116.529 161.24 115.729 162.52C114.956 163.773 113.929 164.733 112.649 165.4C111.396 166.067 109.849 166.4 108.009 166.4C105.716 166.4 103.836 165.813 102.369 164.64C100.903 163.467 99.8094 161.787 99.0894 159.6C98.396 157.413 98.0494 154.787 98.0494 151.72C98.0494 148.627 98.3694 145.987 99.0094 143.8C99.6494 141.613 100.703 139.933 102.169 138.76C103.636 137.587 105.583 137 108.009 137C110.303 137 112.183 137.587 113.649 138.76C115.116 139.907 116.209 141.587 116.929 143.8C117.649 145.987 118.009 148.627 118.009 151.72ZM104.049 151.72C104.049 153.88 104.169 155.693 104.409 157.16C104.649 158.6 105.049 159.693 105.609 160.44C106.196 161.16 106.996 161.52 108.009 161.52C109.023 161.52 109.809 161.16 110.369 160.44C110.956 159.72 111.369 158.64 111.609 157.2C111.876 155.733 112.009 153.907 112.009 151.72C112.009 149.533 111.876 147.72 111.609 146.28C111.369 144.813 110.956 143.72 110.369 143C109.809 142.253 109.023 141.88 108.009 141.88C106.996 141.88 106.196 142.253 105.609 143C105.049 143.72 104.649 144.813 104.409 146.28C104.169 147.72 104.049 149.533 104.049 151.72ZM141.06 166H121.1V161.8L128.26 154.56C129.7 153.067 130.86 151.827 131.74 150.84C132.62 149.827 133.26 148.92 133.66 148.12C134.06 147.293 134.26 146.413 134.26 145.48C134.26 144.333 133.94 143.48 133.3 142.92C132.687 142.36 131.847 142.08 130.78 142.08C129.687 142.08 128.62 142.333 127.58 142.84C126.54 143.347 125.447 144.067 124.3 145L121.02 141.12C121.847 140.4 122.713 139.733 123.62 139.12C124.553 138.507 125.62 138.013 126.82 137.64C128.047 137.24 129.513 137.04 131.22 137.04C133.087 137.04 134.687 137.387 136.02 138.08C137.38 138.747 138.42 139.667 139.14 140.84C139.887 141.987 140.26 143.293 140.26 144.76C140.26 145.96 140.073 147.067 139.7 148.08C139.353 149.093 138.833 150.08 138.14 151.04C137.473 151.973 136.647 152.947 135.66 153.96C134.673 154.947 133.553 156.027 132.3 157.2L128.62 160.64V160.92H141.06V166Z" fill="#301111"/>
<defs>
<clipPath id="clip0_188_990">
<rect width="117.273" height="178" fill="white"/>
</clipPath>
</defs>
</svg>
