<svg width="100" height="362" viewBox="0 0 100 362" fill="none" xmlns="http://www.w3.org/2000/svg">
<g clip-path="url(#clip0_403_909)">
<path d="M13.4792 4.94653C13.4792 4.94653 13.2074 17.9914 14.4032 23.5355" stroke="#301111" stroke-opacity="0.3" stroke-linecap="round" stroke-linejoin="round"/>
<path d="M14.9468 4.07642C14.9468 4.07642 17.7188 14.7298 19.4581 17.5562" stroke="#301111" stroke-opacity="0.3" stroke-linecap="round" stroke-linejoin="round"/>
<path d="M17.7734 3.5874C17.7734 3.5874 19.9476 7.9357 24.7851 14.2951" stroke="#301111" stroke-opacity="0.3" stroke-linecap="round" stroke-linejoin="round"/>
<path d="M20.9805 3.31592C23.6438 6.46844 26.7963 9.24048 30.275 11.4146" stroke="#301111" stroke-opacity="0.3" stroke-linecap="round" stroke-linejoin="round"/>
<path d="M22.3394 3.31592C22.3394 3.31592 31.9056 6.14231 37.5041 9.62096" stroke="#301111" stroke-opacity="0.3" stroke-linecap="round" stroke-linejoin="round"/>
<path d="M43.8091 33.047C45.7115 32.0143 48.0487 32.0143 49.9511 33.047" stroke="#301111" stroke-opacity="0.3" stroke-linecap="round" stroke-linejoin="round"/>
<path d="M57.9956 32.6665C58.9196 32.2316 60.0067 32.2316 60.9307 32.6665" stroke="#301111" stroke-opacity="0.3" stroke-linecap="round" stroke-linejoin="round"/>
<path d="M57.9409 45.1135C57.9409 45.1135 64.1372 49.6792 58.1583 52.6143" stroke="#301111" stroke-opacity="0.3" stroke-linecap="round" stroke-linejoin="round"/>
<path d="M45.3847 45.8204C46.7956 45.8204 47.9393 44.044 47.9393 41.8526C47.9393 39.6612 46.7956 37.8848 45.3847 37.8848C43.9738 37.8848 42.8301 39.6612 42.8301 41.8526C42.8301 44.044 43.9738 45.8204 45.3847 45.8204Z" stroke="#301111" stroke-opacity="0.3" stroke-linecap="round" stroke-linejoin="round"/>
<path d="M58.6478 43.7551C59.6685 43.7551 60.4959 42.4897 60.4959 40.9287C60.4959 39.3677 59.6685 38.1023 58.6478 38.1023C57.6272 38.1023 56.7998 39.3677 56.7998 40.9287C56.7998 42.4897 57.6272 43.7551 58.6478 43.7551Z" stroke="#301111" stroke-opacity="0.3" stroke-linecap="round" stroke-linejoin="round"/>
<path d="M65.3872 123.111C65.3872 123.111 80.878 177.519 81.4215 193.065C74.8991 206.925 60.441 209.425 56.4188 210.132C7.0112 216.926 8.80487 208.555 8.80487 208.555L11.3051 151.375C11.3051 151.375 -0.0547963 100.446 0.108265 97.4564C-1.63106 82.4004 17.5015 74.2473 18.806 73.2146C20.654 68.5945 22.6107 66.5291 22.6107 66.5291" stroke="#301111" stroke-opacity="0.3" stroke-linecap="round" stroke-linejoin="round"/>
<path d="M22.6653 91.9121C28.6985 96.2604 34.0252 106.805 36.7429 110.773C41.7434 112.621 62.6697 87.9987 62.6697 87.9987C62.6697 87.9987 76.095 102.076 79.1388 105.066C78.2692 106.425 44.6785 158.496 23.698 138.765C20.3824 135.341 7.98975 121.807 7.98975 121.807" stroke="#301111" stroke-opacity="0.3" stroke-linecap="round" stroke-linejoin="round"/>
<path d="M25.7093 61.8003C25.7093 61.8003 22.7199 62.2895 22.8286 63.4309C22.8286 64.5723 22.6655 66.5291 22.6655 66.5291C22.6655 66.5291 41.3632 84.1941 52.1796 99.25C53.2123 98.0543 55.1147 96.0432 55.1147 96.0432C55.1147 96.0432 47.2334 74.9539 45.2223 73.9212C45.168 72.508 45.1136 69.5185 45.1136 69.5185" stroke="#301111" stroke-opacity="0.3" stroke-linecap="round" stroke-linejoin="round"/>
<path d="M16.0346 212.252C16.0346 212.252 10.7623 305.088 12.6103 312.263C12.0124 312.371 11.3602 312.371 10.7079 312.263L10.2188 325.797C10.2188 325.797 22.2309 334.656 42.1788 327.047C42.8854 323.568 44.7334 313.295 40.7112 312.969C40.7656 310.143 49.4622 255.517 49.4622 255.517C49.4622 255.517 57.887 213.284 58.4306 209.751" stroke="#301111" stroke-opacity="0.3" stroke-linecap="round" stroke-linejoin="round"/>
<path d="M80.1171 195.511C80.1171 195.511 81.0411 214.969 72.725 237.146C70.4965 244.157 56.4189 309.654 56.4189 309.654C56.4189 309.654 58.2126 309.762 58.43 314.219C58.3756 315.306 58.3756 320.524 58.3756 320.524C58.3756 320.524 52.9946 325.634 43.0479 322.427" stroke="#301111" stroke-opacity="0.3" stroke-linecap="round" stroke-linejoin="round"/>
<path d="M42.4502 314.11L47.179 270.247" stroke="#301111" stroke-opacity="0.3" stroke-linecap="round" stroke-linejoin="round"/>
<path d="M10.5986 314.98C10.5986 314.98 21.8499 323.731 43.0478 317.535" stroke="#301111" stroke-opacity="0.3" stroke-linecap="round" stroke-linejoin="round"/>
<path d="M20.4915 319.002L20.0566 329.547" stroke="#301111" stroke-opacity="0.3" stroke-linecap="round" stroke-linejoin="round"/>
<path d="M24.9487 319.655L24.6226 330.145" stroke="#301111" stroke-opacity="0.3" stroke-linecap="round" stroke-linejoin="round"/>
<path d="M16.7954 328.786C16.2519 329.601 15.817 330.525 15.5996 331.504C16.741 332.428 24.9485 339.602 32.4493 329.656" stroke="#301111" stroke-opacity="0.3" stroke-linecap="round" stroke-linejoin="round"/>
<path d="M43.3198 322.535V327.21C43.3198 327.21 48.9726 326.449 49.2987 323.514" stroke="#301111" stroke-opacity="0.3" stroke-linecap="round" stroke-linejoin="round"/>
<path d="M35.4922 79.5198C35.4922 79.5198 46.2542 80.77 47.0695 76.7478" stroke="#301111" stroke-opacity="0.3" stroke-linecap="round" stroke-linejoin="round"/>
<path d="M15.4907 76.6934C15.4907 76.6934 30.0032 87.4554 32.0686 92.5647C33.6992 93.9779 44.7331 101.75 46.7441 104.686" stroke="#301111" stroke-opacity="0.3" stroke-linecap="round" stroke-linejoin="round"/>
<path d="M77.1274 168.551C77.1274 168.551 100.663 193.826 90.9333 207.305" stroke="#301111" stroke-opacity="0.3" stroke-linecap="round" stroke-linejoin="round"/>
<path d="M83.5962 151.266C83.5962 151.266 98.0543 163.496 90.3361 172.084" stroke="#301111" stroke-opacity="0.3" stroke-linecap="round" stroke-linejoin="round"/>
<path d="M22.9917 163.496C22.9917 163.496 38.3738 158.55 55.1691 161.648C51.5818 163.061 37.2867 165.181 22.9917 163.496Z" stroke="#301111" stroke-opacity="0.3" stroke-linecap="round" stroke-linejoin="round"/>
<path d="M18.8066 73.2146C18.8066 73.2146 21.1982 80.2806 25.927 85.2811" stroke="#301111" stroke-opacity="0.3" stroke-linecap="round" stroke-linejoin="round"/>
<path d="M79.3021 209.969C79.3021 209.969 92.8362 210.838 99.0325 199.424C98.3259 196.435 82.7264 148.495 82.7264 148.495L71.8013 115.285" stroke="#301111" stroke-opacity="0.3" stroke-linecap="round" stroke-linejoin="round"/>
<path d="M22.9917 163.496V191.38C22.9917 191.38 40.8741 193.065 55.1691 188.879V161.648" stroke="#301111" stroke-opacity="0.3" stroke-linecap="round" stroke-linejoin="round"/>
<path d="M15.6541 331.504C15.6541 331.504 10.2731 345.364 12.5016 354.061C15.1106 354.713 23.6985 357.811 26.3618 356.561C27.6663 356.018 28.536 355.528 31.308 356.724C32.8299 357.485 48.1577 363.355 60.2786 359.877C62.344 359.442 72.8343 359.877 71.4754 351.941C70.9863 349.495 70.3884 338.516 49.5709 337.972C49.4622 335.091 44.4616 328.351 42.2875 327.047" stroke="#301111" stroke-opacity="0.3" stroke-linecap="round" stroke-linejoin="round"/>
<path d="M12.3921 344.06C12.3921 344.06 25.2196 350.691 36.7426 352.43C38.0471 352.756 63.539 358.626 71.4203 351.995" stroke="#301111" stroke-opacity="0.3" stroke-linecap="round" stroke-linejoin="round"/>
<path d="M58.4307 38.1018C58.4307 38.1018 59.0286 37.5039 61.4201 38.6454" stroke="#301111" stroke-opacity="0.3" stroke-linecap="round" stroke-linejoin="round"/>
<path d="M63.0508 75.715L78.0524 69.5187L87.0752 65.6052L89.0319 70.1166L64.7901 80.1177L63.0508 75.715Z" stroke="#301111" stroke-opacity="0.3" stroke-linecap="round" stroke-linejoin="round"/>
<path d="M84.4111 76.6934L88.1615 75.1715L86.6396 71.095" stroke="#301111" stroke-opacity="0.3" stroke-linecap="round" stroke-linejoin="round"/>
<path d="M58.376 320.579C58.376 320.579 64.5723 330.96 71.4209 333.243C72.7254 333.895 82.4003 337.754 83.6505 343.733C83.7048 345.69 84.6289 349.06 78.7043 350.636C76.3127 351.506 73.7037 351.669 71.2578 351.071" stroke="#301111" stroke-opacity="0.3" stroke-linecap="round" stroke-linejoin="round"/>
<path d="M26.6877 51.4734C26.6877 51.4734 21.8502 53.7562 22.0133 46.0923C22.0677 45.6031 21.7959 42.7767 25.8181 43.4833" stroke="#301111" stroke-opacity="0.3" stroke-linecap="round" stroke-linejoin="round"/>
<path d="M56.6909 59.4089L69.4641 72.943L71.2034 72.2907L58.702 59.0828" stroke="#301111" stroke-opacity="0.3" stroke-linecap="round" stroke-linejoin="round"/>
<path d="M70.2256 347.593C70.2256 347.593 79.6831 349.495 83.7053 345.038" stroke="#301111" stroke-opacity="0.3" stroke-linecap="round" stroke-linejoin="round"/>
<path d="M26.742 55.9304L25.4375 63.2138C25.4375 63.2138 34.7864 70.6603 44.4613 71.6387L44.8962 69.3558" stroke="#301111" stroke-opacity="0.3" stroke-linecap="round" stroke-linejoin="round"/>
<path d="M52.7769 62.9961C52.7769 62.9961 55.9294 64.8441 58.9188 61.8003" stroke="#301111" stroke-opacity="0.3" stroke-linecap="round" stroke-linejoin="round"/>
<path d="M45.3853 37.8847C45.3853 37.8847 48.1573 37.2324 50.2227 38.7" stroke="#301111" stroke-opacity="0.3" stroke-linecap="round" stroke-linejoin="round"/>
<path d="M11.8492 3.31565C11.8492 3.31565 14.6213 -2.11973 22.3395 0.978438C23.1005 1.41327 26.0899 2.77211 27.2313 4.0766C28.4815 4.13096 38.6456 3.64177 45.1681 8.91409C46.5269 8.96844 52.9407 8.85973 59.3001 18.2086C60.0067 19.4044 63.2679 25.7094 59.6262 27.1226C58.974 25.8181 57.6151 21.5242 55.2779 21.7416C54.2452 21.9046 36.3628 27.177 25.6007 39.3522C23.5353 38.6456 21.2524 39.1891 19.6762 40.6567C19.2413 41.3089 17.6107 42.5591 17.9368 46.9074C17.1215 47.6683 11.4144 52.1797 11.4144 52.1797C11.4144 52.1797 6.95739 49.6794 8.42494 33.9168C8.69671 31.0904 7.66398 9.40327 11.8492 3.31565Z" stroke="#301111" stroke-opacity="0.3" stroke-linecap="round" stroke-linejoin="round"/>
<path d="M17.9907 46.9075C17.9907 46.9075 20.5997 55.7128 26.6873 55.9302" stroke="#301111" stroke-opacity="0.3" stroke-linecap="round" stroke-linejoin="round"/>
<path d="M12.4469 51.4729C12.9361 53.1035 14.1319 54.4624 15.7082 55.1146C14.8928 55.2777 6.08753 57.9954 5.87012 64.4091C6.63107 64.7896 12.9905 57.5605 12.9905 57.5605C11.6316 58.865 10.5989 60.4413 10.001 62.1806C9.83794 62.8328 6.52236 70.1163 11.1968 72.1817C12.0121 72.5078 18.2628 76.0408 18.2628 67.4529C18.1541 66.2571 17.9367 57.941 19.676 57.6149C20.4369 58.1584 21.7414 60.7674 25.9267 61.3109" stroke="#301111" stroke-opacity="0.3" stroke-linecap="round" stroke-linejoin="round"/>
<path d="M26.7417 55.9299C26.7417 55.9299 38.6452 68.6487 47.9397 70.0076C49.0267 70.225 56.6363 70.6598 59.7888 62.9416" stroke="#301111" stroke-opacity="0.3" stroke-linecap="round" stroke-linejoin="round"/>
<path d="M59.6807 27.1226C59.6807 27.1226 63.1593 33.0471 61.9092 42.4503C62.3984 43.2113 65.6052 51.1469 60.4416 60.9306" stroke="#301111" stroke-opacity="0.3" stroke-linecap="round" stroke-linejoin="round"/>
<path d="M8.53369 33.4819C8.53369 33.4819 26.8509 11.523 48.8642 9.45752" stroke="#301111" stroke-opacity="0.3" stroke-linecap="round" stroke-linejoin="round"/>
<path d="M25.4375 39.2978C25.4375 39.2978 29.7314 40.2762 30.0576 46.0377C30.7642 46.0377 31.3621 40.1674 31.3621 40.1674C31.3621 40.1674 35.5473 38.863 41.2001 27.5574" stroke="#301111" stroke-opacity="0.3" stroke-linecap="round" stroke-linejoin="round"/>
<path d="M48.5918 10.762C48.5918 10.762 55.7121 13.4253 55.8208 19.6216" stroke="#301111" stroke-opacity="0.3" stroke-linecap="round" stroke-linejoin="round"/>
<path d="M51.3638 59.2999C51.3638 59.2999 64.6261 60.6587 58.158 55.0603" stroke="#301111" stroke-opacity="0.3" stroke-linecap="round" stroke-linejoin="round"/>
<path d="M20.9805 42.9395C20.9805 42.9395 25.2201 38.863 27.3399 47.1248" stroke="#301111" stroke-opacity="0.3" stroke-linecap="round" stroke-linejoin="round"/>
<path d="M45.2222 73.9209C45.2222 73.9209 51.2554 78.8671 55.4407 82.1827C56.2016 82.237 61.1478 83.1067 62.6697 87.9985" stroke="#301111" stroke-opacity="0.3" stroke-linecap="round" stroke-linejoin="round"/>
<path d="M10.9795 33.6453C10.9795 38.1023 11.8492 42.5593 13.4798 46.7445" stroke="#301111" stroke-opacity="0.3" stroke-linecap="round" stroke-linejoin="round"/>
<path d="M14.1318 31.4167C14.1318 31.4167 14.1318 37.8848 17.3931 42.9397" stroke="#301111" stroke-opacity="0.3" stroke-linecap="round" stroke-linejoin="round"/>
<path d="M17.1758 28.2639C17.6106 32.0687 18.8064 35.7104 20.6544 39.0803" stroke="#301111" stroke-opacity="0.3" stroke-linecap="round" stroke-linejoin="round"/>
<path d="M20.6543 26.0901C20.6543 26.0901 22.5567 33.5366 24.9482 36.526" stroke="#301111" stroke-opacity="0.3" stroke-linecap="round" stroke-linejoin="round"/>
<path d="M23.8066 21.8501C23.8066 21.8501 24.0784 26.7419 28.6441 32.8839" stroke="#301111" stroke-opacity="0.3" stroke-linecap="round" stroke-linejoin="round"/>
<path d="M46.4722 12.0122C46.4722 12.0122 51.2009 15.3821 52.6685 20.3827" stroke="#301111" stroke-opacity="0.3" stroke-linecap="round" stroke-linejoin="round"/>
<path d="M42.5049 13.0449C42.5049 13.0449 46.9619 17.1215 48.8099 21.4698" stroke="#301111" stroke-opacity="0.3" stroke-linecap="round" stroke-linejoin="round"/>
<path d="M38.2651 14.6758C38.2651 14.6758 41.5264 18.5893 44.1353 22.5027" stroke="#301111" stroke-opacity="0.3" stroke-linecap="round" stroke-linejoin="round"/>
<path d="M34.7861 16.8496C34.7861 16.8496 38.3735 22.285 39.5693 24.5135" stroke="#301111" stroke-opacity="0.3" stroke-linecap="round" stroke-linejoin="round"/>
<path d="M31.0903 18.5891C31.0903 18.5891 33.9167 24.4593 36.1996 27.3401" stroke="#301111" stroke-opacity="0.3" stroke-linecap="round" stroke-linejoin="round"/>
<path d="M27.5024 20.0566C27.5024 20.0566 29.8397 26.1986 32.9378 29.8947" stroke="#301111" stroke-opacity="0.3" stroke-linecap="round" stroke-linejoin="round"/>
<path d="M14.1317 61.2571C13.0989 65.0618 12.9359 69.084 13.5881 72.9975" stroke="#301111" stroke-opacity="0.3" stroke-linecap="round" stroke-linejoin="round"/>
<path d="M15.8165 61.5288C15.8165 61.5288 14.8925 68.4317 15.4904 72.9975" stroke="#301111" stroke-opacity="0.3" stroke-linecap="round" stroke-linejoin="round"/>
<path d="M42.5591 314.002C42.5591 314.002 53.5929 315.687 58.213 312.208" stroke="#301111" stroke-opacity="0.3" stroke-linecap="round" stroke-linejoin="round"/>
<path d="M46.5275 314.382L46.3101 323.242" stroke="#301111" stroke-opacity="0.3" stroke-linecap="round" stroke-linejoin="round"/>
<path d="M67.4526 79.0303L68.6484 81.748" stroke="#301111" stroke-opacity="0.3" stroke-linecap="round" stroke-linejoin="round"/>
<path d="M63.3218 88.7056C63.3218 88.7056 69.5725 78.1066 78.3234 74.5193C78.867 74.3018 84.9002 71.6385 84.9002 75.3346C84.9002 75.552 84.9546 76.8021 81.2042 79.0306C80.9324 79.1937 76.4754 82.4549 75.9319 82.7267C77.182 82.2918 87.6179 76.476 89.6834 79.5198C89.9551 80.009 91.9119 82.8354 80.715 87.238C82.9435 86.6401 90.0638 81.6396 91.2596 84.466C91.314 84.6291 92.5641 86.6945 83.8675 90.9341C85.9873 90.1188 90.2269 86.4227 91.314 89.1948C91.3683 89.5753 92.7272 93.8692 75.4427 101.044" stroke="#301111" stroke-opacity="0.3" stroke-linecap="round" stroke-linejoin="round"/>
<path d="M88.1621 75.063L96.8043 97.4567L79.1937 105.066L77.0195 100.337" stroke="#301111" stroke-opacity="0.3" stroke-linecap="round" stroke-linejoin="round"/>
</g>
<defs>
<clipPath id="clip0_403_909">
<rect width="99.0326" height="361.018" fill="white"/>
</clipPath>
</defs>
</svg>
